<svg width="1000" height="1000" viewBox="0 0 1000 1000" fill="none" xmlns="http://www.w3.org/2000/svg">
<rect width="1000" height="1000" rx="80" fill="#FFF7FA"/>
<path d="M163 725H837C837 760.346 808.346 789 773 789H227C191.654 789 163 760.346 163 725Z" fill="#B7E3FF"/>
<rect x="125" y="250" width="750" height="500" rx="90" fill="url(#paint0_linear_60028_1632)"/>
<path d="M234.724 319.558C252.871 301.41 282.294 301.41 300.442 319.558C318.589 337.706 318.589 367.129 300.442 385.276L285.276 400.442C267.129 418.59 237.706 418.59 219.558 400.442C201.41 382.294 201.41 352.871 219.558 334.724L234.724 319.558Z" fill="#FFF7FA"/>
<path d="M412.037 309.774C415.642 303.759 424.358 303.759 427.963 309.774L432.016 316.539C434.118 320.047 438.268 321.766 442.235 320.772L449.884 318.855C456.686 317.15 462.85 323.314 461.145 330.116L459.228 337.765C458.234 341.732 459.953 345.882 463.461 347.984L470.226 352.037C476.241 355.642 476.241 364.358 470.226 367.963L463.461 372.016C459.953 374.118 458.234 378.268 459.228 382.235L461.145 389.884C462.85 396.686 456.686 402.85 449.884 401.145L442.235 399.228C438.268 398.234 434.118 399.953 432.016 403.461L427.963 410.226C424.358 416.241 415.642 416.241 412.037 410.226L407.984 403.461C405.882 399.953 401.732 398.234 397.765 399.228L390.116 401.145C383.314 402.85 377.15 396.686 378.855 389.884L380.772 382.235C381.766 378.268 380.047 374.118 376.539 372.016L369.774 367.963C363.759 364.358 363.759 355.642 369.774 352.037L376.539 347.984C380.047 345.882 381.766 341.732 380.772 337.765L378.855 330.116C377.15 323.314 383.314 317.15 390.116 318.855L397.765 320.772C401.732 321.766 405.882 320.047 407.984 316.539L412.037 309.774Z" fill="#FFF7FA"/>
<path d="M568.048 311.92C575.243 306.693 584.984 306.693 592.178 311.92L625.475 336.111C632.669 341.338 635.679 350.603 632.931 359.06L620.213 398.202C617.465 406.66 609.584 412.386 600.692 412.386H559.535C550.643 412.386 542.762 406.66 540.014 398.202L527.296 359.06C524.548 350.603 527.558 341.338 534.752 336.111L568.048 311.92Z" fill="#FFF7FA"/>
<path d="M696.496 360C692.025 354.642 689.331 347.727 689.331 340.178C689.331 323.162 703.017 309.368 719.901 309.368C727.542 309.368 734.529 312.194 739.888 316.865C745.235 312.194 752.205 309.368 759.829 309.368C776.673 309.368 790.328 323.162 790.328 340.178C790.328 347.727 787.64 354.642 783.179 360C787.64 365.358 790.328 372.273 790.328 379.822C790.328 396.838 776.673 410.632 759.829 410.632C752.205 410.632 745.235 407.806 739.888 403.135C734.529 407.806 727.542 410.632 719.901 410.632C703.017 410.632 689.331 396.838 689.331 379.822C689.331 372.273 692.025 365.358 696.496 360Z" fill="#FFF7FA"/>
<path d="M284.776 475.889C281.626 470.89 278.419 465.821 274.159 461.852C269.9 457.872 264.382 455.06 258.724 455.427C253.756 455.753 249.151 458.506 245.516 462.099C241.881 465.693 239.057 470.118 236.279 474.503C228.766 486.343 221.244 498.183 213.731 510.033C210.161 515.656 206.498 521.526 205.51 528.228C204.317 536.326 207.533 544.572 213.237 549.958C219.203 555.59 228.869 555.135 236.13 553.591C244.09 551.898 251.873 548.71 259.992 548.72C266.945 548.72 273.665 551.076 280.432 552.789C287.19 554.492 294.451 555.541 300.976 553.007C309.076 549.869 314.892 540.949 314.734 531.792C314.585 523.437 305.674 509.023 305.674 509.023C305.674 509.023 291.741 486.935 284.776 475.889Z" fill="#FFF7FA"/>
<path d="M376.496 505C372.025 499.642 369.331 492.727 369.331 485.178C369.331 468.162 383.017 454.368 399.901 454.368C407.542 454.368 414.529 457.194 419.888 461.865C425.235 457.194 432.205 454.368 439.829 454.368C456.673 454.368 470.328 468.162 470.328 485.178C470.328 492.727 467.64 499.642 463.179 505C467.64 510.358 470.328 517.273 470.328 524.822C470.328 541.838 456.673 555.632 439.829 555.632C432.205 555.632 425.235 552.806 419.888 548.135C414.529 552.806 407.542 555.632 399.901 555.632C383.017 555.632 369.331 541.838 369.331 524.822C369.331 517.273 372.025 510.358 376.496 505Z" fill="#FFF7FA"/>
<path fill-rule="evenodd" clip-rule="evenodd" d="M618.701 466.295C614.639 462.233 605.382 464.241 594.213 470.68C590.869 458.229 585.744 450.263 579.999 450.263C574.254 450.263 569.129 458.229 565.784 470.679C554.616 464.241 545.361 462.233 541.298 466.295C537.236 470.357 539.245 479.615 545.685 490.784C533.231 494.129 525.263 499.254 525.263 505C525.263 510.745 533.228 515.87 545.678 519.214C539.238 530.384 537.229 539.642 541.291 543.705C545.354 547.768 554.613 545.758 565.783 539.317C569.128 551.769 574.253 559.737 579.999 559.737C585.745 559.737 590.87 551.769 594.215 539.315C605.386 545.757 614.645 547.767 618.708 543.704C622.771 539.642 620.761 530.384 614.321 519.214C626.771 515.87 634.737 510.745 634.737 505C634.737 499.254 626.769 494.129 614.315 490.784C620.754 479.615 622.763 470.358 618.701 466.295Z" fill="#FFF7FA"/>
<path d="M720.642 462.493C726.651 458.128 729.656 455.946 732.858 454.861C737.49 453.292 742.51 453.292 747.142 454.861C750.344 455.946 753.349 458.128 759.358 462.493L772.871 472.308C776.439 474.901 778.223 476.197 779.678 477.752C781.78 480.001 783.392 482.661 784.413 485.565C785.12 487.574 785.443 489.755 786.09 494.117L788.592 510.987C789.727 518.64 790.294 522.466 789.722 525.915C788.893 530.904 786.389 535.461 782.623 538.837C780.019 541.17 776.485 542.744 769.417 545.893L753.402 553.025C749.137 554.925 747.004 555.875 744.811 556.36C741.642 557.062 738.358 557.062 735.189 556.36C732.996 555.875 730.863 554.925 726.598 553.025L710.584 545.893C703.515 542.744 699.981 541.17 697.377 538.837C693.611 535.461 691.107 530.904 690.279 525.915C689.706 522.466 690.273 518.64 691.408 510.987L693.91 494.117C694.557 489.755 694.88 487.574 695.587 485.565C696.608 482.661 698.22 480.001 700.322 477.752C701.777 476.197 703.561 474.901 707.13 472.308L720.642 462.493Z" fill="#FFF7FA"/>
<path d="M302.301 606.73C305.444 606.944 307.015 607.05 308.285 607.606C310.123 608.41 311.59 609.877 312.394 611.715C312.95 612.985 313.056 614.556 313.27 617.699L313.757 624.871C313.844 626.142 313.887 626.778 314.025 627.385C314.225 628.262 314.571 629.099 315.051 629.861C315.382 630.388 315.801 630.868 316.639 631.828L321.366 637.244C323.437 639.617 324.473 640.804 324.978 642.095C325.709 643.963 325.709 646.037 324.978 647.905C324.473 649.196 323.437 650.383 321.366 652.756L316.639 658.172C315.801 659.132 315.382 659.612 315.051 660.139C314.571 660.901 314.225 661.738 314.025 662.615C313.887 663.222 313.844 663.858 313.757 665.129L313.27 672.301C313.056 675.444 312.95 677.015 312.394 678.285C311.59 680.123 310.123 681.59 308.285 682.394C307.015 682.95 305.444 683.056 302.301 683.27L295.129 683.757C293.858 683.844 293.222 683.887 292.615 684.025C291.738 684.225 290.901 684.572 290.139 685.051C289.612 685.382 289.132 685.801 288.172 686.639L282.756 691.366C280.383 693.437 279.196 694.473 277.905 694.978C276.037 695.709 273.962 695.709 272.095 694.978C270.804 694.473 269.617 693.437 267.244 691.366L261.828 686.639C260.868 685.801 260.388 685.382 259.861 685.051C259.099 684.572 258.262 684.225 257.385 684.025C256.778 683.887 256.142 683.844 254.871 683.757L247.699 683.27C244.556 683.056 242.985 682.95 241.715 682.394C239.877 681.59 238.41 680.123 237.606 678.285C237.05 677.015 236.944 675.444 236.73 672.301L236.243 665.129C236.156 663.858 236.113 663.222 235.975 662.615C235.775 661.738 235.428 660.901 234.949 660.139C234.618 659.612 234.199 659.132 233.361 658.172L228.634 652.756C226.563 650.383 225.527 649.196 225.022 647.905C224.291 646.037 224.291 643.963 225.022 642.095C225.527 640.804 226.563 639.617 228.634 637.244L233.361 631.828C234.199 630.868 234.618 630.388 234.949 629.861C235.428 629.099 235.775 628.262 235.975 627.385C236.113 626.778 236.156 626.142 236.243 624.871L236.73 617.699C236.944 614.556 237.05 612.985 237.606 611.715C238.41 609.877 239.877 608.41 241.715 607.606C242.985 607.05 244.556 606.944 247.699 606.73L254.871 606.243C256.142 606.156 256.778 606.113 257.385 605.975C258.262 605.775 259.099 605.429 259.861 604.949C260.388 604.618 260.868 604.199 261.828 603.361L267.244 598.634C269.617 596.563 270.804 595.527 272.095 595.022C273.962 594.291 276.037 594.291 277.905 595.022C279.196 595.527 280.383 596.563 282.756 598.634L288.172 603.361C289.132 604.199 289.612 604.618 290.139 604.949C290.901 605.429 291.738 605.775 292.615 605.975C293.222 606.113 293.858 606.156 295.129 606.243L302.301 606.73Z" fill="#FFF7FA"/>
<rect x="375" y="605" width="250" height="80" rx="40" fill="#FFF7FA"/>
<path d="M775.526 645C775.526 672.905 752.905 695.526 725 695.526C697.095 695.526 674.474 672.905 674.474 645C674.474 617.095 697.095 594.474 725 594.474C752.905 594.474 775.526 617.095 775.526 645Z" fill="#FFF7FA"/>
<defs>
<linearGradient id="paint0_linear_60028_1632" x1="500" y1="250" x2="500" y2="750" gradientUnits="userSpaceOnUse">
<stop stop-color="#1B6DE9"/>
<stop offset="0.5" stop-color="#6B96FE"/>
<stop offset="1" stop-color="#A2A6FF"/>
</linearGradient>
</defs>
</svg>
